HIERARCHY
ROOT Hips
{
    OFFSET 11.294918060302734 87.58573532104492 -17.792896270751953
    CHANNELS 6 Xposition Yposition Zposition Zrotation Xrotation Yrotation
    JOINT RightUpLeg
    {
        OFFSET -11.294918060302734 0.0 0.0
        CHANNELS 3 Zrotation Xrotation Yrotation
        JOINT RightLeg
        {
            OFFSET 0.0 -43.103492736816406 0.0
            CHANNELS 3 Zrotation Xrotation Yrotation
            JOINT RightFoot
            {
                OFFSET 0.0 -44.482242584228516 0.0
                CHANNELS 3 Zrotation Xrotation Yrotation
                End Site
                {
                    OFFSET 0.0 0.0 17.792896270751953
                }
            }
        }
    }
    JOINT LeftUpLeg
    {
        OFFSET 11.294918060302734 0.0 0.0
        CHANNELS 3 Zrotation Xrotation Yrotation
        JOINT LeftLeg
        {
            OFFSET 0.0 -43.103492736816406 0.0
            CHANNELS 3 Zrotation Xrotation Yrotation
            JOINT LeftFoot
            {
                OFFSET 0.0 -44.482242584228516 0.0
                CHANNELS 3 Zrotation Xrotation Yrotation
                End Site
                {
                    OFFSET 0.0 0.0 17.792896270751953
                }
            }
        }
    }
    JOINT Spine
    {
        OFFSET 0.0 23.616016387939453 0.0
        CHANNELS 3 Zrotation Xrotation Yrotation
        JOINT Spine3
        {
            OFFSET 0.0 25.01082992553711 0.0
            CHANNELS 3 Zrotation Xrotation Yrotation
            JOINT Neck
            {
                OFFSET 0.0 11.218377113342285 0.0
                CHANNELS 3 Zrotation Xrotation Yrotation
                End Site
                {
                    OFFSET 0.0 4.487350940704346 0.0
                }
            }
            JOINT LeftArm
            {
                OFFSET 12.673831939697266 0.0 0.0
                CHANNELS 3 Zrotation Xrotation Yrotation
                JOINT LeftForeArm
                {
                    OFFSET 23.5552978515625 0.0 0.0
                    CHANNELS 3 Zrotation Xrotation Yrotation
                    JOINT LeftHand
                    {
                        OFFSET 17.840646743774414 0.0 0.0
                        CHANNELS 3 Zrotation Xrotation Yrotation
                        End Site
                        {
                            OFFSET 7.136259078979492 0.0 0.0
                        }
                    }
                }
            }
            JOINT RightArm
            {
                OFFSET -12.673831939697266 0.0 0.0
                CHANNELS 3 Zrotation Xrotation Yrotation
                JOINT RightForeArm
                {
                    OFFSET -23.5552978515625 0.0 0.0
                    CHANNELS 3 Zrotation Xrotation Yrotation
                    JOINT RightHand
                    {
                        OFFSET -17.840646743774414 0.0 0.0
                        CHANNELS 3 Zrotation Xrotation Yrotation
                        End Site
                        {
                            OFFSET -7.136259078979492 0.0 0.0
                        }
                    }
                }
            }
        }
    }
}
MOTION
Frames: 9
Frame Time: 0.03333333333333333
5.083811629447155e-05 90.64118957519531 -0.0012009618803858757 -1.846642822422584 -7.529799880459956 -11.72285014919366 2.710961430678286 14.137958489334395 -1.459631696666697 0.19192747452846226 9.565123311139065 -0.9946239044936405 0.0 0.0 3.9756933518293955e-16 -3.624939779039234 18.34926759383249 0.10685740315354038 -2.0543267711230397 10.445465071683117 0.43083275672466104 3.9756933518293955e-16 -3.4483642953516864e-34 -9.939233379573489e-17 3.813299303551102 22.681825069633543 -2.7412986384354383 3.814527367924391e-07 4.388127261138221e-07 -3.031004748169044 4.511502190054661 6.539746823699223 178.08093383841938 118.1670443300571 -42.27228867151072 -168.9285801506122 1.0854611211202928e-06 -1.6732819578966458e-06 31.587544627183455 3.1805546814635164e-15 -6.3611093629270335e-15 -6.3611093629270335e-15 -116.67435138884619 -29.779188068279073 169.68295954277895 2.338708442839146e-06 -1.1769655745584238e-06 -33.83143235962242 -2.882377680076312e-15 -3.1805546814635168e-15 3.1805546814635168e-15
5.1475079089868814e-05 90.64114379882812 -0.001188657945021987 -2.0194697975095526 -7.37327968528645 -11.480336099747916 3.1674535499118965 13.801099319066406 -1.4764204017808036 0.00016417741585360597 9.24232269527902 -0.9648547791811545 3.862168010793889e-32 3.1805546814635176e-15 -1.391492673140289e-15 -3.1868278536314345 18.427816463180854 0.04655881388678999 -2.0807478552309036 10.697934561476725 0.4121205008164112 0.0 0.0 9.939233379573489e-17 4.299009981343501 22.463344519977856 -2.8092391436037154 5.771890620165799e-07 2.2292380537756895e-06 -3.140206310626067 4.515491893425087 6.720800068702261 178.41769866090132 118.33702289770487 -42.311332926996506 -168.64837225901826 3.041638675282151e-06 2.4315373266889537e-06 31.735580736754986 6.3611093629270335e-15 0.0 0.0 -117.03419743669158 -30.283042957961136 169.58230171447417 -5.6666521582669e-06 -3.748887195279708e-06 -33.865478806773524 7.00715953259931e-15 3.1805546814635168e-15 3.1805546814635164e-15
4.628136593964882e-05 90.6410903930664 -0.0011715375585481524 -2.1532537565200127 -7.132239048256071 -11.498871877610085 3.412336789145225 13.490899691271725 -1.4561771600402835 0.17893518465525787 8.87189504806388 -0.9635325762891279 0.0 0.0 3.975693351829396e-16 -2.957128911960512 18.487356654331496 0.03518733336598714 -1.9905806371286996 11.029860727251133 0.4008831738864556 -3.975693351829397e-16 -2.4138550067461805e-33 6.957463365701445e-16 4.585418592512921 22.098953952434023 -2.801657755818811 -5.278221555399301e-07 -1.058430860720929e-06 -3.197890501929525 4.40551883270879 6.891717603839819 178.65705314589957 118.05082700686265 -42.011422553054125 -168.64918965316113 2.2980253757020018e-07 2.6908238145224257e-06 31.325976439750647 9.54166404439055e-15 -6.361109362927033e-15 6.3611093629270335e-15 -117.04547616640838 -30.715393415614766 169.43813611780377 7.632964638731641e-07 1.3168713575117079e-06 -33.827715020296026 -3.429035515952854e-15 9.517485455170654e-32 -3.1805546814635168e-15
4.7338562580989674e-05 90.64105987548828 -0.0011562107829377055 -2.0961405788772898 -7.023764187545888 -11.065190366123517 3.61626163451867 13.177263087643091 -1.4425615011007236 0.07226215268636943 8.698956480082167 -0.9424213895929682 -1.9828094698272196e-33 9.93923337957349e-17 2.2860236773019026e-15 -2.6695325314433758 18.625032505278547 -0.018214302136079347 -2.0939734016451785 11.367409522399152 0.40193645330280026 -3.975693351829396e-16 3.1308585145656493e-15 -5.963540027744094e-16 4.806447585415759 21.898449732885908 -2.8160438894362523 -5.525918105336648e-07 -1.999090899341468e-06 -3.2604946882773365 4.4017459730708755 7.106043820651152 178.92636322631895 117.75365352565431 -41.73495046287735 -168.54933238769777 1.9772668581823513e-06 -5.304274165869931e-06 31.166389545523394 -6.3611093629270335e-15 -6.3611093629270335e-15 -6.3611093629270335e-15 -117.15829325307025 -30.979923701131572 169.50835813986183 1.844844950859841e-06 2.1021038584316602e-06 -34.07474537161842 5.06900902358248e-15 0.0 0.0
6.868354103062302e-05 90.64103698730469 -0.001142311142757535 -2.0373129267676684 -6.886099668558008 -10.829788631635115 3.8497035446036953 12.74635227036516 -1.4363553600567618 9.635848156622121e-05 8.520529790476845 -0.9403120569428103 1.6552148617688095e-32 -1.5902773407317584e-15 1.1927080055488188e-15 -2.695506195836876 18.76256356263725 0.007310248433333039 -1.7238604023475415 11.906487777184674 0.35991358549048763 7.327774127622334e-34 -4.9696166897867443e-17 1.689669674527493e-15 4.858569836016958 21.6217060619065 -2.7816288087225547 2.089863491569856e-07 -4.007155687705034e-08 -3.5635852344107786 4.289421659416303 7.240201548426936 179.08064134334842 117.9552445856989 -42.082762088723264 -168.2917151369369 5.179835947112394e-06 -6.566273531004641e-07 31.183692185811363 3.531125038440127e-31 6.3611093629270335e-15 -6.3611093629270335e-15 -116.91651680304038 -31.204168659105658 169.47172485048588 -1.3888397006017754e-06 -5.247813200589689e-08 -34.54696708478483 7.951386703658792e-15 3.1805546814635168e-15 -2.2069531490250793e-31
3.95489223592449e-05 90.64103698730469 -0.0011595002142712474 -2.0479648780811504 -6.783522182043571 -10.709434520580032 4.142639960732617 12.579088252339101 -1.4789929254879501 -0.26551463234815137 8.429148196920345 -0.9317294650171322 -3.0173187584327256e-34 4.969616689786745e-17 6.957463365701443e-16 -2.4938580407707995 18.725477307065077 -0.052715564510789445 -1.5279028245308672 12.389959146738507 0.2942867082921419 -1.9310840053969444e-32 3.1805546814635176e-15 6.957463365701445e-16 4.926329349284639 21.43166977455085 -2.7779082394556944 2.605060001007358e-07 -4.362469281466432e-07 -3.6400433700611035 4.416929884073526 7.315678669761909 179.4154570125993 118.44615859599833 -42.58349713799046 -168.10583092564477 -5.147832637368031e-06 -3.6188792497445715e-07 31.757833797141977 -6.3611093629270335e-15 0.0 0.0 -117.14975775663545 -31.579876132520866 169.43998509289707 1.0216218713779117e-07 -2.6780525544968707e-06 -35.169423614764675 -6.212020862233431e-15 1.7241821476758432e-31 -3.1805546814635168e-15
5.998940468998626e-05 90.64105987548828 -0.0011428022990003228 -1.9534353772522177 -6.880523198052633 -10.316940903416915 4.409237596487166 12.648291146414815 -1.5658795604596671 -0.365912429145426 8.407930912086147 -0.9655155409919822 0.0 0.0 9.939233379573489e-17 -2.5226253953980096 18.842132070169654 -0.07230995533320156 -1.4670377307991949 12.901816996843285 0.27999753315167364 0.0 0.0 -1.9878466759146984e-15 4.906325625663386 21.520668892018755 -2.814388081128121 8.714271350104588e-08 9.501613290837257e-07 -3.6622362749980284 4.220424837532474 7.159343006994436 179.11677739595666 119.40373336778589 -43.67362083831531 -167.50947417061604 1.1781380589007376e-06 -6.415723645005539e-06 33.11223888732196 -3.1805546814635168e-15 6.3611093629270335e-15 1.7655625192200634e-31 -117.61463203933222 -32.2727354373624 168.93034632934345 -2.5499519773320084e-06 -1.0765137179624947e-07 -35.599492971881325 -9.044702375411875e-15 3.1805546814635168e-15 -3.1805546814635164e-15
2.0279276213841513e-05 90.64105987548828 -0.0011561329010874033 -1.9596022670987079 -6.878617158472609 -10.23429858449981 4.554845662721217 12.650665851535933 -1.5999716639243131 -0.38917961425358677 8.409887935695206 -0.9843076713348113 0.0 0.0 1.789062008323228e-15 -2.3420757432716846 18.820652966275183 -0.13274375221183074 -1.5352561755510736 13.172463879569813 0.2608853471877284 3.975693351829395e-16 5.517382872562698e-33 1.590277340731758e-15 4.767614128998533 21.419749388019994 -2.752921074018397 3.08638965612215e-07 -4.930501954636261e-07 -3.58703733467903 4.098372941303319 6.965598702680719 178.51228532319487 119.07716193922644 -43.50412191152253 -167.71078142378263 5.526788038040953e-07 -3.953935691534685e-06 33.22014477810053 -3.531125038440127e-31 6.361109362927033e-15 6.361109362927033e-15 -117.70218271476357 -32.30106600221754 168.76566334899024 -3.6523045882895767e-06 -1.6404905044657757e-07 -35.882203918777705 -2.484808344893372e-15 6.896728590703373e-32 -3.1805546814635164e-15
1.409407559549436e-05 90.64106750488281 -0.0011671927059069276 -1.8643884948130804 -6.985481531492678 -10.091587456477633 4.738068848586072 12.752122069062413 -1.6370744433700681 -0.7185964919222645 8.630458897446175 -0.9755924564363269 -4.310455369189608e-35 4.969616689786745e-17 9.93923337957349e-17 -2.07681997803709 18.637379130956536 -0.19259228960770836 -1.855306479013961 13.564979976610994 0.3009938528487032 3.975693351829396e-16 -6.896728590703373e-34 -1.987846675914698e-16 4.3704190137800145 21.416904892061392 -2.5780798006389043 -3.1245981962368954e-07 -1.0406399543913027e-06 -3.623617171070468 3.878138531231209 6.94756382662044 177.6318899676167 119.61502256692445 -43.95028269528324 -167.70533466426215 -5.272458385221984e-07 -2.390231698649269e-06 34.30834716859313 0.0 0.0 0.0 -117.77786880123556 -32.73106261572645 168.40631491173832 3.722251685727662e-06 -3.770650560987434e-06 -35.75219783811331 2.087239009710433e-15 0.0 0.0
